<svg width="48" height="48" viewBox="0 0 48 48" fill="none" xmlns="http://www.w3.org/2000/svg">
  <defs>
    <linearGradient id="ne-shield" x1="6" y1="4" x2="42" y2="44" gradientUnits="userSpaceOnUse">
      <stop offset="0%" stopColor="#0055FF" />
      <stop offset="50%" stopColor="#007AFF" />
      <stop offset="100%" stopColor="#00C6FF" />
    </linearGradient>
    <linearGradient id="ne-core" x1="16" y1="14" x2="32" y2="34" gradientUnits="userSpaceOnUse">
      <stop offset="0%" stopColor="#FFFFFF" />
      <stop offset="100%" stopColor="#E0F2FE" />
    </linearGradient>
  </defs>
  <path d="M24 4L8 10V22C8 32.5 14.8 41.8 24 44C33.2 41.8 40 32.5 40 22V10L24 4Z" fill="url(#ne-shield)"/>
  <path d="M24 6.5L10 11.8V21.5C10 30.8 16 39.2 24 41.3C32 39.2 38 30.8 38 21.5V11.8L24 6.5Z" stroke="#FFFFFF" stroke-opacity="0.35" stroke-width="1.2" fill="none"/>
  <g stroke="#FFFFFF" stroke-width="1.5" stroke-linecap="round" stroke-opacity="0.9">
    <line x1="24" y1="14" x2="16" y2="22" />
    <line x1="24" y1="14" x2="32" y2="22" />
    <line x1="16" y1="22" x2="24" y2="30" />
    <line x1="32" y1="22" x2="24" y2="30" />
    <line x1="16" y1="22" x2="32" y2="22" stroke-dasharray="2 2" stroke-opacity="0.6" />
    <line x1="24" y1="30" x2="24" y2="36" />
  </g>
  <circle cx="24" cy="14" r="3" fill="url(#ne-core)" stroke="#0055FF" stroke-width="1.2" />
  <circle cx="16" cy="22" r="3.2" fill="url(#ne-core)" stroke="#007AFF" stroke-width="1.2" />
  <circle cx="32" cy="22" r="3.2" fill="url(#ne-core)" stroke="#007AFF" stroke-width="1.2" />
  <circle cx="24" cy="22" r="2.2" fill="#FFFFFF" />
  <circle cx="24" cy="30" r="3.4" fill="#FFFFFF" stroke="#00C6FF" stroke-width="1.4" />
  <circle cx="24" cy="36" r="1.8" fill="#FFFFFF" />
</svg>
